Coordinates
version=1
nRows=23
nColumns=27
inDegrees=yes

Units are S.I. units (second, meters, Newtons, ...)
If the header above contains a line with 'inDegrees', this indicates whether rotational values are in degrees (yes) or radians (no).

endheader
time	pelvis_rotation	pelvis_tilt	pelvis_list	pelvis_tx	pelvis_ty	pelvis_tz	hip_flexion_r	hip_adduction_r	hip_rotation_r	knee_angle_r	knee_rotation_r	knee_adduction_r	knee_angle_r_beta	ankle_angle_r	subtalar_angle_r	mtp_angle_r	hip_flexion_l	hip_adduction_l	hip_rotation_l	knee_angle_l	knee_rotation_l	knee_adduction_l	knee_angle_l_beta	ankle_angle_l	subtalar_angle_l	mtp_angle_l
      3.91500000	      0.45222392	    -20.53904510	      2.17053745	      0.04636221	      0.80152537	     -1.16711754	     46.56407441	    -31.89800687	    -18.93463292	     41.93017813	      0.00000000	      6.84472789	      0.73181966	      4.86044279	      0.00000000	      0.00000000	     46.82965807	    -22.14138695	     -5.63354683	     37.10591313	      0.00000000	     -2.26404172	      0.64762036	      4.77497276	      0.00000000	      0.00000000
      3.92000000	      0.46359263	    -20.60326144	      2.24869245	      0.04553583	      0.80021494	     -1.16697826	     47.06657763	    -32.13832755	    -18.82146202	     42.48960826	      0.00000000	      7.11190372	      0.74158356	      5.00291056	      0.00000000	      0.00000000	     47.22346579	    -22.23052751	     -5.80758229	     37.55919268	      0.00000000	     -2.67727265	      0.65553158	      4.88490763	      0.00000000	      0.00000000
      3.92500000	      0.35928964	    -20.59739950	      2.30556692	      0.04479360	      0.79895937	     -1.16683467	     47.52810204	    -32.29580216	    -18.60802889	     43.00016128	      0.00000000	      7.34766623	      0.75049439	      5.08578413	      0.00000000	      0.00000000	     47.46927414	    -22.39964842	     -6.12868824	     37.98073125	      0.00000000	     -3.12575691	      0.66288881	      5.02831298	      0.00000000	      0.00000000
      3.93000000	      0.22807739	    -20.62459854	      2.28586984	      0.04400949	      0.79767580	     -1.16665770	     47.98779149	    -32.36507020	    -18.41502244	     43.47780245	      0.00000000	      7.56626630	      0.75883080	      5.20311090	      0.00000000	      0.00000000	     47.78997798	    -22.65213381	     -6.42047470	     38.44360441	      0.00000000	     -3.57895117	      0.67096747	      5.15194137	      0.00000000	      0.00000000
      3.93500000	      0.14083681	    -20.64023229	      2.32567279	      0.04316960	      0.79639905	     -1.16653644	     48.44745164	    -32.51357867	    -18.24176567	     43.96670460	      0.00000000	      7.78928278	      0.76736376	      5.30925629	      0.00000000	      0.00000000	     48.08388781	    -22.81773253	     -6.66355143	     38.87405896	      0.00000000	     -3.98079608	      0.67848032	      5.26722898	      0.00000000	      0.00000000
      3.94000000	      0.06689032	    -20.67984307	      2.35745067	      0.04222613	      0.79512575	     -1.16642295	     48.92513669	    -32.65147438	    -18.06800609	     44.44583399	      0.00000000	      7.98761077	      0.77572614	      5.40595531	      0.00000000	      0.00000000	     48.41906870	    -22.96648536	     -6.82855824	     39.30237606	      0.00000000	     -4.32610305	      0.68595587	      5.38080193	      0.00000000	      0.00000000
      3.94500000	      0.03683924	    -20.75711151	      2.35989889	      0.04125187	      0.79385918	     -1.16631956	     49.38578415	    -32.78979615	    -17.98606134	     44.89921461	      0.00000000	      8.18256168	      0.78363913	      5.49262701	      0.00000000	      0.00000000	     48.83650639	    -23.10545587	     -6.88541929	     39.74717925	      0.00000000	     -4.63130641	      0.69371915	      5.48346419	      0.00000000	      0.00000000
      3.95000000	     -0.18319874	    -20.76771952	      2.36096728	      0.04032515	      0.79265766	     -1.16620876	     49.87723834	    -32.80149135	    -17.65298799	     45.32024186	      0.00000000	      8.32640853	      0.79098744	      5.55035892	      0.00000000	      0.00000000	     49.05341054	    -23.35670905	     -7.20239775	     40.14012841	      0.00000000	     -4.98909585	      0.70057740	      5.60469695	      0.00000000	      0.00000000
      3.95500000	     -0.29739326	    -20.81631008	      2.49268043	      0.03928409	      0.79139727	     -1.16622038	     50.46307478	    -32.98231853	    -17.30953718	     45.80227053	      0.00000000	      8.47420924	      0.79940043	      5.61770579	      0.00000000	      0.00000000	     49.31718448	    -23.43647794	     -7.45476227	     40.51786147	      0.00000000	     -5.28257733	      0.70717009	      5.67855777	      0.00000000	      0.00000000
      3.96000000	     -0.51748498	    -21.30197762	      2.36987804	      0.03691426	      0.79001041	     -1.16604565	     51.56804663	    -32.70960887	    -16.51428695	     46.22876839	      0.00000000	      7.97940387	      0.80684422	      5.53031268	      0.00000000	      0.00000000	     50.25890708	    -23.65795555	     -7.12738016	     41.03250283	      0.00000000	     -5.14939652	      0.71615227	      5.68883081	      0.00000000	      0.00000000
      3.96500000	     -0.48316463	    -20.94069279	      2.53638688	      0.03726230	      0.78900702	     -1.16613497	     51.41818329	    -33.16614612	    -16.90438663	     46.60945145	      0.00000000	      8.73130323	      0.81348839	      5.74398485	      0.00000000	      0.00000000	     49.98082640	    -23.73244135	     -7.70712043	     41.29717446	      0.00000000	     -5.82905101	      0.72077167	      5.85058538	      0.00000000	      0.00000000
      3.97000000	     -0.73961864	    -21.49336988	      2.54403302	      0.03480525	      0.78758669	     -1.16605130	     52.73406022	    -32.95437539	    -15.90314922	     47.08815749	      0.00000000	      8.22831875	      0.82184339	      5.64462438	      0.00000000	      0.00000000	     50.90214650	    -23.87852464	     -7.51562798	     41.76561445	      0.00000000	     -5.64269636	      0.72894749	      5.80961005	      0.00000000	      0.00000000
      3.97500000	     -0.79814360	    -21.06819716	      2.61846168	      0.03526046	      0.78667663	     -1.16609620	     52.46884261	    -33.27282043	    -16.27279020	     47.38363879	      0.00000000	      8.92578403	      0.82700051	      5.82322704	      0.00000000	      0.00000000	     50.52764358	    -24.08643412	     -8.16700732	     42.02834950	      0.00000000	     -6.37669669	      0.73353308	      6.02099304	      0.00000000	      0.00000000
      3.98000000	     -0.86760642	    -21.16557144	      2.63508746	      0.03423614	      0.78552389	     -1.16608139	     52.94924842	    -33.35215512	    -16.07921541	     47.74721974	      0.00000000	      9.01627243	      0.83334619	      5.85629946	      0.00000000	      0.00000000	     50.89392315	    -24.22502855	     -8.25197908	     42.39556561	      0.00000000	     -6.61985453	      0.73994221	      6.09917757	      0.00000000	      0.00000000
      3.98500000	     -0.88440076	    -21.73027898	      2.63981407	      0.03185428	      0.78413948	     -1.16605731	     54.09603431	    -33.28659726	    -15.41417240	     48.18764780	      0.00000000	      8.55967288	      0.84103311	      5.75195714	      0.00000000	      0.00000000	     51.93716221	    -24.21230766	     -7.73497920	     42.83352488	      0.00000000	     -6.31967933	      0.74758604	      6.02837702	      0.00000000	      0.00000000
      3.99000000	     -1.07925002	    -21.35763612	      2.81897736	      0.03223014	      0.78317259	     -1.16615636	     54.08108316	    -33.56961225	    -15.41808145	     48.52958133	      0.00000000	      9.17029560	      0.84700098	      5.92889092	      0.00000000	      0.00000000	     51.48759452	    -24.45664149	     -8.68370686	     43.07788633	      0.00000000	     -7.10874266	      0.75185095	      6.23921227	      0.00000000	      0.00000000
      3.99500000	     -0.99651598	    -21.45081988	      2.87254460	      0.03126385	      0.78203404	     -1.16621100	     54.48000137	    -33.77052961	    -15.36647230	     48.87960596	      0.00000000	      9.24233250	      0.85311006	      5.94192057	      0.00000000	      0.00000000	     51.89635261	    -24.47609753	     -8.62011830	     43.41781299	      0.00000000	     -7.31047141	      0.75778379	      6.29250216	      0.00000000	      0.00000000
      4.00000000	     -0.98647709	    -21.58521480	      2.87217808	      0.03027670	      0.78084739	     -1.16623087	     54.94424586	    -33.88609807	    -15.26660442	     49.23755260	      0.00000000	      9.30312103	      0.85935741	      5.92835452	      0.00000000	      0.00000000	     52.35014259	    -24.59634150	     -8.61506651	     43.79093393	      0.00000000	     -7.53052210	      0.76429598	      6.35752164	      0.00000000	      0.00000000
      4.00500000	     -0.65719362	    -23.16146295	      2.86821162	      0.02704712	      0.77869655	     -1.16641440	     57.18594976	    -34.03769417	    -14.79572554	     49.95040908	      0.00000000	      8.90011467	      0.87179910	      5.96880495	      0.00000000	      0.00000000	     54.96328974	    -24.49451471	     -7.65456128	     44.76371363	      0.00000000	     -7.20152739	      0.78127419	      6.55024798	      0.00000000	      0.00000000
      4.01000000	     -1.18898586	    -21.81174281	      3.09502661	      0.02830947	      0.77835579	     -1.16639493	     56.16507567	    -34.08665699	    -14.45904650	     50.02475257	      0.00000000	      9.38842953	      0.87309664	      5.99836458	      0.00000000	      0.00000000	     52.96664662	    -24.84603712	     -9.13212471	     44.49559854	      0.00000000	     -8.04546543	      0.77659470	      6.51814341	      0.00000000	      0.00000000
      4.01500000	     -1.06203151	    -22.37815710	      3.27097674	      0.02600415	      0.77678900	     -1.16654537	     57.39048970	    -34.22797221	    -13.77165866	     50.54034941	      0.00000000	      9.00674548	      0.88209550	      5.90790760	      0.00000000	      0.00000000	     53.99459332	    -24.63258960	     -8.61142852	     44.88879845	      0.00000000	     -7.63758453	      0.78345733	      6.41150370	      0.00000000	      0.00000000
      4.02000000	     -1.17564352	    -22.04551208	      3.29940060	      0.02630195	      0.77571927	     -1.16664746	     57.27891556	    -34.41483894	    -13.88516684	     50.82348181	      0.00000000	      9.47311661	      0.88703709	      6.03253673	      0.00000000	      0.00000000	     53.74963773	    -24.96097679	     -9.30950580	     45.23483768	      0.00000000	     -8.43353560	      0.78949685	      6.64378605	      0.00000000	      0.00000000
      4.02500000	     -1.01797431	    -22.23227340	      3.54994921	      0.02522628	      0.77426969	     -1.16684414	     57.97594306	    -34.78203560	    -13.58586375	     51.30475703	      0.00000000	      9.50451535	      0.89543693	      6.06778813	      0.00000000	      0.00000000	     54.23819025	    -24.82624888	     -9.32914184	     45.59673895	      0.00000000	     -8.58515255	      0.79581322	      6.67355955	      0.00000000	      0.00000000
